<svg width="current" height="current" viewBox="0 0 32 32" fill="none" xmlns="http://www.w3.org/2000/svg">
<path d="M9.33 27H22.6633C23.2156 27 23.6633 26.5523 23.6633 26V14.6667C23.6633 14.1144 23.2156 13.6667 22.6633 13.6667H21.6633V10.6667C21.6633 7.54207 19.1213 5 15.9967 5C12.8721 5 10.33 7.54207 10.33 10.6667V13.6667H9.33C8.77774 13.6667 8.33 14.1144 8.33 14.6667V26C8.33 26.5523 8.77774 27 9.33 27ZM16.9967 20.6657V22C16.9967 22.5523 16.5489 23 15.9967 23C15.4444 23 14.9967 22.5523 14.9967 22V20.6657C14.5921 20.3614 14.33 19.8775 14.33 19.3333C14.33 18.4143 15.0777 17.6667 15.9967 17.6667C16.9157 17.6667 17.6633 18.4143 17.6633 19.3333C17.6633 19.8775 17.4012 20.3614 16.9967 20.6657ZM12.33 10.6667C12.33 8.64487 13.9749 7 15.9967 7C18.0185 7 19.6633 8.64487 19.6633 10.6667V13.6667H12.33V10.6667Z" fill="#E0E0E0" stroke="#E0E0E0" stroke-width="0.606061"/>
</svg>
